<?xml version="1.0" encoding="UTF-8"?>
<!DOCTYPE svg PUBLIC "-//W3C//DTD SVG 1.1//EN"
 "http://www.w3.org/Graphics/SVG/1.1/DTD/svg11.dtd">
<svg xmlns="http://www.w3.org/2000/svg" version="1.1"
     width="180mm" height="25mm"
     viewBox="0 0 96 1" preserveAspectRatio="none"
     shape-rendering="crispEdges" stroke="none">
<rect width="1" height=".96" x="0" y="0" fill="#223538" />
<rect width="1" height=".96" x="1" y="0" fill="#1D3B3F" />
<rect width="1" height=".96" x="2" y="0" fill="#273A3C" />
<rect width="1" height=".96" x="3" y="0" fill="#263435" />
<rect width="1" height=".96" x="4" y="0" fill="#273032" />
<rect width="1" height=".96" x="5" y="0" fill="#2A3735" />
<rect width="1" height=".96" x="6" y="0" fill="#192123" />
<rect width="1" height=".96" x="7" y="0" fill="#282F30" />
<rect width="1" height=".96" x="8" y="0" fill="#4D8AA4" />
<rect width="1" height=".96" x="9" y="0" fill="#A8AEB3" />
<rect width="1" height=".96" x="10" y="0" fill="#577B8B" />
<rect width="1" height=".96" x="11" y="0" fill="#6D98A1" />
<rect width="1" height=".96" x="12" y="0" fill="#4D5C5F" />
<rect width="1" height=".96" x="13" y="0" fill="#4A5652" />
<rect width="1" height=".96" x="14" y="0" fill="#706B5E" />
<rect width="1" height=".96" x="15" y="0" fill="#1D292B" />
<rect width="1" height=".96" x="16" y="0" fill="#9BAFBF" />
<rect width="1" height=".96" x="17" y="0" fill="#D5D1D0" />
<rect width="1" height=".96" x="18" y="0" fill="#5E8292" />
<rect width="1" height=".96" x="19" y="0" fill="#F8EAE1" />
<rect width="1" height=".96" x="20" y="0" fill="#55625E" />
<rect width="1" height=".96" x="21" y="0" fill="#8D7661" />
<rect width="1" height=".96" x="22" y="0" fill="#484849" />
<rect width="1" height=".96" x="23" y="0" fill="#1B3030" />
<rect width="1" height=".96" x="24" y="0" fill="#3B829E" />
<rect width="1" height=".96" x="25" y="0" fill="#E9E2DC" />
<rect width="1" height=".96" x="26" y="0" fill="#5E8C9B" />
<rect width="1" height=".96" x="27" y="0" fill="#F3EBE4" />
<rect width="1" height=".96" x="28" y="0" fill="#958579" />
<rect width="1" height=".96" x="29" y="0" fill="#AE9582" />
<rect width="1" height=".96" x="30" y="0" fill="#314240" />
<rect width="1" height=".96" x="31" y="0" fill="#2C3C40" />
<rect width="1" height=".96" x="32" y="0" fill="#217B95" />
<rect width="1" height=".96" x="33" y="0" fill="#D7D0D1" />
<rect width="1" height=".96" x="34" y="0" fill="#60899A" />
<rect width="1" height=".96" x="35" y="0" fill="#F9EAE0" />
<rect width="1" height=".96" x="36" y="0" fill="#B1947B" />
<rect width="1" height=".96" x="37" y="0" fill="#5D5851" />
<rect width="1" height=".96" x="38" y="0" fill="#514948" />
<rect width="1" height=".96" x="39" y="0" fill="#545758" />
<rect width="1" height=".96" x="40" y="0" fill="#207792" />
<rect width="1" height=".96" x="41" y="0" fill="#3D8097" />
<rect width="1" height=".96" x="42" y="0" fill="#6A8C98" />
<rect width="1" height=".96" x="43" y="0" fill="#FAEAE1" />
<rect width="1" height=".96" x="44" y="0" fill="#4A5255" />
<rect width="1" height=".96" x="45" y="0" fill="#3D4343" />
<rect width="1" height=".96" x="46" y="0" fill="#E4C099" />
<rect width="1" height=".96" x="47" y="0" fill="#292C2C" />
<rect width="1" height=".96" x="48" y="0" fill="#24768E" />
<rect width="1" height=".96" x="49" y="0" fill="#377B92" />
<rect width="1" height=".96" x="50" y="0" fill="#4A8293" />
<rect width="1" height=".96" x="51" y="0" fill="#E0DAD2" />
<rect width="1" height=".96" x="52" y="0" fill="#AD9580" />
<rect width="1" height=".96" x="53" y="0" fill="#C0A281" />
<rect width="1" height=".96" x="54" y="0" fill="#3C3C3B" />
<rect width="1" height=".96" x="55" y="0" fill="#495B53" />
<rect width="1" height=".96" x="56" y="0" fill="#26738C" />
<rect width="1" height=".96" x="57" y="0" fill="#628493" />
<rect width="1" height=".96" x="58" y="0" fill="#467F92" />
<rect width="1" height=".96" x="59" y="0" fill="#A1ABAE" />
<rect width="1" height=".96" x="60" y="0" fill="#5D5D58" />
<rect width="1" height=".96" x="61" y="0" fill="#6D655B" />
<rect width="1" height=".96" x="62" y="0" fill="#343E38" />
<rect width="1" height=".96" x="63" y="0" fill="#443F42" />
<rect width="1" height=".96" x="64" y="0" fill="#23708A" />
<rect width="1" height=".96" x="65" y="0" fill="#3C778E" />
<rect width="1" height=".96" x="66" y="0" fill="#437C8F" />
<rect width="1" height=".96" x="67" y="0" fill="#EBDBD3" />
<rect width="1" height=".96" x="68" y="0" fill="#2A3334" />
<rect width="1" height=".96" x="69" y="0" fill="#202B2C" />
<rect width="1" height=".96" x="70" y="0" fill="#2F3638" />
<rect width="1" height=".96" x="71" y="0" fill="#28292C" />
<rect width="1" height=".96" x="72" y="0" fill="#40768E" />
<rect width="1" height=".96" x="73" y="0" fill="#30748B" />
<rect width="1" height=".96" x="74" y="0" fill="#437B8C" />
<rect width="1" height=".96" x="75" y="0" fill="#E8DAD2" />
<rect width="1" height=".96" x="76" y="0" fill="#243436" />
<rect width="1" height=".96" x="77" y="0" fill="#9E907F" />
<rect width="1" height=".96" x="78" y="0" fill="#1B3244" />
<rect width="1" height=".96" x="79" y="0" fill="#1E2822" />
<rect width="1" height=".96" x="80" y="0" fill="#237089" />
<rect width="1" height=".96" x="81" y="0" fill="#6B8390" />
<rect width="1" height=".96" x="82" y="0" fill="#40788C" />
<rect width="1" height=".96" x="83" y="0" fill="#DBCCC8" />
<rect width="1" height=".96" x="84" y="0" fill="#444A49" />
<rect width="1" height=".96" x="85" y="0" fill="#404140" />
<rect width="1" height=".96" x="86" y="0" fill="#243031" />
<rect width="1" height=".96" x="87" y="0" fill="#7B6C5A" />
<rect width="1" height=".96" x="88" y="0" fill="#172123" />
<rect width="1" height=".96" x="89" y="0" fill="#1E282A" />
<rect width="1" height=".96" x="90" y="0" fill="#1E282A" />
<rect width="1" height=".96" x="91" y="0" fill="#1E282A" />
<rect width="1" height=".96" x="92" y="0" fill="#1C2427" />
<rect width="1" height=".96" x="93" y="0" fill="#1C2225" />
<rect width="1" height=".96" x="94" y="0" fill="#1A1F22" />
<rect width="1" height=".96" x="95" y="0" fill="#1A1E22" />
</svg>